<svg class="enlivenem" xmlns="http://www.w3.org/2000/svg" xmlns:xlink="http://www.w3.org/1999/xlink" version="1.1" x="0px" y="0px" width="100px" height="100px" viewBox="0 0 100 100" enable-background="new 0 0 100 100" xml:space="preserve" data-global-elvn="enableViewport, enableClick, full, startInvisible, responsive, 0">
  <desc>Animated with Enliven 'em Animation Engine by DeeThemes</desc>
  <g>
    <polygon fill="#5BB3F0" points="63 60 37 60 34 86 50 77 66 86 " data-elvn="fadeShortB, in, 500, 300, linear" class="elvn-layer"></polygon>
    <path fill="#1983CD" d="M79 43c0-0.91-2.78-1.68-2.87-2.58 -0.09-0.91 2.49-2.2 2.32-3.08 -0.18-0.89-3.06-1.11-3.32-1.97 -0.26-0.87 2.01-2.65 1.67-3.48 -0.35-0.84-3.21-0.48-3.64-1.28 -0.43-0.8 1.46-2.99 0.95-3.74 -0.5-0.75-3.24 0.16-3.82-0.54 -0.57-0.7 0.85-3.21 0.21-3.85 -0.64-0.64-3.15 0.78-3.85 0.21 -0.7-0.57 0.21-3.31-0.54-3.82 -0.75-0.5-2.94 1.38-3.74 0.95 -0.79-0.42-0.44-3.29-1.28-3.64 -0.83-0.34-2.61 1.93-3.48 1.67 -0.86-0.26-1.07-3.14-1.97-3.32 -0.88-0.17-2.17 2.4-3.08 2.32C51.68 16.78 50.91 14 50 14s-1.68 2.78-2.58 2.87c-0.91 0.09-2.2-2.49-3.08-2.32 -0.89 0.18-1.11 3.06-1.97 3.32 -0.87 0.26-2.65-2.01-3.48-1.67 -0.84 0.35-0.48 3.21-1.28 3.64 -0.8 0.43-2.99-1.46-3.74-0.95 -0.75 0.5 0.16 3.25-0.54 3.82 -0.7 0.57-3.21-0.85-3.85-0.21 -0.64 0.64 0.78 3.15 0.21 3.85 -0.57 0.7-3.31-0.21-3.82 0.54 -0.5 0.75 1.38 2.94 0.95 3.74 -0.43 0.79-3.29 0.44-3.64 1.28 -0.34 0.83 1.93 2.61 1.67 3.48 -0.26 0.86-3.14 1.07-3.32 1.97 -0.17 0.88 2.41 2.17 2.32 3.08C23.78 41.32 21 42.09 21 43s2.78 1.68 2.87 2.58c0.09 0.91-2.49 2.2-2.32 3.08 0.18 0.89 3.06 1.11 3.32 1.97 0.26 0.87-2.01 2.65-1.67 3.48 0.35 0.84 3.21 0.48 3.64 1.28 0.43 0.8-1.46 2.99-0.95 3.74 0.5 0.75 3.24-0.16 3.82 0.54s-0.85 3.21-0.21 3.85c0.64 0.64 3.15-0.78 3.85-0.21 0.7 0.57-0.21 3.31 0.54 3.82 0.75 0.5 2.94-1.38 3.74-0.95 0.79 0.42 0.44 3.29 1.28 3.64 0.83 0.34 2.61-1.93 3.48-1.67 0.86 0.26 1.07 3.14 1.97 3.32 0.88 0.17 2.17-2.41 3.08-2.32C48.32 69.22 49.09 72 50 72s1.68-2.78 2.58-2.87c0.91-0.09 2.2 2.49 3.08 2.32 0.89-0.18 1.11-3.06 1.97-3.32 0.87-0.26 2.65 2.01 3.48 1.67 0.84-0.35 0.48-3.21 1.28-3.64 0.8-0.43 2.99 1.46 3.74 0.95 0.75-0.5-0.16-3.24 0.54-3.82 0.7-0.57 3.21 0.85 3.85 0.21 0.64-0.64-0.78-3.15-0.21-3.85 0.57-0.7 3.31 0.21 3.82-0.54 0.5-0.75-1.38-2.94-0.95-3.74 0.42-0.79 3.29-0.44 3.64-1.28 0.34-0.83-1.93-2.61-1.67-3.48 0.26-0.86 3.14-1.07 3.32-1.97 0.17-0.88-2.41-2.17-2.32-3.08C76.22 44.69 79 43.92 79 43z" data-elvn="drawLines, 0, 700, #1983cd, 1, notRandom" class="elvn-layer"></path>
    <g>
      <path fill="#FFFFFF" d="M49.98 41.29l-0.69 4.17h3.41l-0.51 3.33h-3.45L47.89 54h-3.3l0.86-5.21h-2.87L41.71 54h-3.3l0.86-5.21H36l0.51-3.33h3.3l0.69-4.17h-3.25l0.51-3.33h3.29L42.03 32h3.31l-0.98 5.96h2.87L48.21 32h3.3l-0.98 5.96h3.42l-0.51 3.33H49.98zM46.66 41.29H43.8l-0.67 4.17h2.86L46.66 41.29z" data-elvn="stamp, in, 800, 300, linear" class="elvn-layer"></path>
      <path fill="#FFFFFF" d="M59 54V37h-2.82v-2.25c1.56-0.18 3.18-1.27 3.82-2.75h2v22H59z" data-elvn="stamp, in, 1000, 300, linear" class="elvn-layer"></path>
    </g>
  </g>
</svg>