<svg class="enlivenem" xmlns="http://www.w3.org/2000/svg" xmlns:xlink="http://www.w3.org/1999/xlink" version="1.1" x="0px" y="0px" width="100px" height="100px" viewBox="0 0 100 100" enable-background="new 0 0 100 100" xml:space="preserve" data-global-elvn="enableViewport, enableClick, full, startInvisible, responsive, 0">
  <desc>Animated with Enliven 'em Animation Engine by DeeThemes</desc>
  <g data-elvn="expandY, in, 0, 500, linear" class="elvn-layer">
    <path fill="#848484" d="M19 46v8h-5v-8H19zM81 46v8h5v-8H81z" data-elvn="expandX, in, 300, 400, linear" class="elvn-layer"></path>
    <path fill="#644892" d="M18 49v29c0 3.31 2.69 6 6 6h52c3.31 0 6-2.69 6-6V49H18z"></path>
    <path fill="#5B3F89" d="M76 16H24c-3.31 0-6 2.69-6 6v28h64V22C82 18.69 79.31 16 76 16z"></path>
    <path fill="#FFFFFF" d="M51.05 57.47c0 1.82-0.64 3.36-1.92 4.63 -1.28 1.27-2.82 1.9-4.61 1.9 -1.82 0-3.36-0.64-4.64-1.91 -1.27-1.27-1.91-2.81-1.91-4.62V42.55c0-1.82 0.64-3.37 1.92-4.64 1.28-1.27 2.82-1.91 4.63-1.91 1.82 0 3.36 0.64 4.63 1.92 1.26 1.28 1.9 2.82 1.9 4.63V57.47zM46.77 42.46c0-0.65-0.23-1.21-0.7-1.68 -0.46-0.47-1.03-0.7-1.68-0.7 -0.65 0-1.21 0.23-1.67 0.7 -0.46 0.47-0.69 1.03-0.69 1.68v14.95c0 0.65 0.23 1.21 0.69 1.68 0.46 0.46 1.01 0.7 1.67 0.7 0.66 0 1.22-0.23 1.68-0.7 0.47-0.47 0.7-1.03 0.7-1.68V42.46z"></path>
    <path fill="#FFFFFF" d="M57.9 63.72V42.66h-3.51v-2.88c0.99-0.12 1.93-0.49 2.83-1.12 0.89-0.63 1.54-1.4 1.93-2.3h2.88v27.37H57.9z"></path>
  </g>
</svg>