<svg class="enlivenem" xmlns="http://www.w3.org/2000/svg" xmlns:xlink="http://www.w3.org/1999/xlink" version="1.1" x="0px" y="0px" width="100px" height="100px" viewBox="0 0 100 100" enable-background="new 0 0 100 100" xml:space="preserve" data-global-elvn="enableViewport, enableClick, full, startInvisible, responsive, 0">
  <desc>Animated with Enliven 'em Animation Engine by DeeThemes</desc>
  <g>
    <g data-elvn="maskClockTwo, in, 0, 500, easein" class="elvn-layer">
      <circle fill="#FF8933" cx="50" cy="50" r="37"></circle>
      <circle fill="#FFFFFF" cx="50" cy="50" r="30"></circle>
    </g>
    <rect x="54.5" y="42.272" transform="matrix(0.7071 -0.7071 0.7071 0.7071 -22.7817 55)" fill="#FF725F" width="1" height="25.456" data-elvn="custom, in, 1200, 100, 0, linear" data-elvncustom="r-15,50,50" class="elvn-layer"></rect>
    <circle fill="#808080" cx="50" cy="50" r="3" data-elvn="fade, in, 500, 100, easein" class="elvn-layer"></circle>
    <path fill="#808080" d="M50 49H35c-0.553 0-1 0.447-1 1s0.447 1 1 1h15c0.553 0 1-0.447 1-1S50.553 49 50 49z" data-elvn="custom, in, 600, 300, 0, linear" data-elvncustom="r-30,50,50" class="elvn-layer"></path>
    <path fill="#808080" d="M50 27c-0.553 0-1 0.447-1 1v22c0 0.553 0.447 1 1 1s1-0.447 1-1V28C51 27.447 50.553 27 50 27z" data-elvn="custom, in, 600, 500, 0, linear" data-elvncustom="r-89,50,50" class="elvn-layer"></path>
  </g>
</svg>