<svg class="enlivenem" xmlns="http://www.w3.org/2000/svg" xmlns:xlink="http://www.w3.org/1999/xlink" version="1.1" x="0px" y="0px" width="100px" height="100px" viewBox="0 0 100 100" enable-background="new 0 0 100 100" xml:space="preserve" data-global-elvn="enableViewport, enableClick, full, startInvisible, responsive, 0">
  <desc>Animated with Enliven 'em Animation Engine by DeeThemes</desc>
  <g data-elvn="maskStackY, in, 0, 500, linear" class="elvn-layer">
    <circle fill="#C63D6F" cx="50.002" cy="50" r="34.994"></circle>
    <circle fill="#F979A6" cx="50.002" cy="50" r="30.995"></circle>
    <path fill="#FA9EBF" d="M50.312 28.017c-12.305 0-22.315 9.655-22.315 21.749s10.011 22.237 22.315 22.237c12.305 0 21.694-10.144 21.694-22.237S62.617 28.017 50.312 28.017zM65.252 37.765c2.656 3.188 3.828 7.431 3.871 11.853 -0.629-0.131-6.682-1.387-13.025-0.604 -0.133-0.32-0.27-0.643-0.41-0.967 -0.396-0.913-0.82-1.82-1.264-2.713C61.471 42.506 64.852 38.299 65.252 37.765zM50.312 30.878c4.842 0 9.456 1.785 12.821 4.721 -0.342 0.479-3.398 4.453-10.176 6.949 -3.123-5.64-6.584-10.273-7.112-10.967C47.279 31.242 48.774 30.878 50.312 30.878zM42.022 32.657c0.503 0.678 4.095 5.5 7.254 11.018 -8.916 2.327-16.77 2.294-17.622 2.282C32.89 40.145 36.69 35.13 42.022 32.657zM31.251 49.794c0-0.191 0.004-0.382 0.01-0.572 0.834 0.017 10.07 0.134 19.589-2.666 0.546 1.05 1.068 2.114 1.546 3.18 -0.252 0.069-0.504 0.144-0.752 0.223 -9.831 3.122-15.061 11.636-15.493 12.361C33.107 58.999 31.251 54.605 31.251 49.794zM50.312 69.077c-4.406 0-8.468-2.027-11.699-4.504 0.343-0.689 4.202-8.018 14.954-11.699 0.041-0.015 0.084-0.027 0.125-0.042 2.676 6.835 3.783 12.563 4.066 14.207C55.469 67.997 52.953 69.077 50.312 69.077zM60.963 65.323c-0.195-1.139-1.211-6.623-3.703-13.356 5.973-0.939 10.785 0.599 11.438 0.801C67.848 57.98 65.238 62.482 60.963 65.323z" data-elvn="maskCross, in, 550, 700, easeout" class="elvn-layer"></path>
  </g>
</svg>