<svg class="enlivenem" xmlns="http://www.w3.org/2000/svg" xmlns:xlink="http://www.w3.org/1999/xlink" version="1.1" x="0px" y="0px" width="100px" height="100px" viewBox="0 0 100 100" enable-background="new 0 0 100 100" xml:space="preserve" data-global-elvn="enableViewport, enableClick, full, startInvisible, responsive, 0">
  <g data-elvn="maskStairsT, in, 0, 1000, easeinout" class="elvn-layer">
    <path fill="#6E6E6E" d="M81 16v5c0 1.657-1.343 3-3 3h-4c-1.657 0-3-1.343-3-3v-5H29v5c0 1.657-1.343 3-3 3h-4c-1.657 0-3-1.343-3-3v-5h-4v68h4v-5c0-1.657 1.343-3 3-3h4c1.657 0 3 1.343 3 3v5h42v-5c0-1.657 1.343-3 3-3h4c1.657 0 3 1.343 3 3v5h4V16H81zM29 69c0 1.657-1.343 3-3 3h-4c-1.657 0-3-1.343-3-3v-2c0-1.657 1.343-3 3-3h4c1.657 0 3 1.343 3 3V69zM29 57c0 1.657-1.343 3-3 3h-4c-1.657 0-3-1.343-3-3v-2c0-1.657 1.343-3 3-3h4c1.657 0 3 1.343 3 3V57zM29 45c0 1.657-1.343 3-3 3h-4c-1.657 0-3-1.343-3-3v-2c0-1.657 1.343-3 3-3h4c1.657 0 3 1.343 3 3V45zM29 33c0 1.657-1.343 3-3 3h-4c-1.657 0-3-1.343-3-3v-2c0-1.657 1.343-3 3-3h4c1.657 0 3 1.343 3 3V33zM81 69c0 1.657-1.343 3-3 3h-4c-1.657 0-3-1.343-3-3v-2c0-1.657 1.343-3 3-3h4c1.657 0 3 1.343 3 3V69zM81 57c0 1.657-1.343 3-3 3h-4c-1.657 0-3-1.343-3-3v-2c0-1.657 1.343-3 3-3h4c1.657 0 3 1.343 3 3V57zM81 45c0 1.657-1.343 3-3 3h-4c-1.657 0-3-1.343-3-3v-2c0-1.657 1.343-3 3-3h4c1.657 0 3 1.343 3 3V45zM81 33c0 1.657-1.343 3-3 3h-4c-1.657 0-3-1.343-3-3v-2c0-1.657 1.343-3 3-3h4c1.657 0 3 1.343 3 3V33z"></path>
    <path fill="#8C8C8C" d="M64 24H36c-1.657 0-3 1.343-3 3v18c0 1.657 1.343 3 3 3h28c1.657 0 3-1.343 3-3V27C67 25.343 65.657 24 64 24z"></path>
    <path fill="#515151" d="M64 52H36c-1.657 0-3 1.343-3 3v18c0 1.657 1.343 3 3 3h28c1.657 0 3-1.343 3-3V55C67 53.343 65.657 52 64 52z"></path>
  </g>
</svg>