<svg class="enlivenem" xmlns="http://www.w3.org/2000/svg" xmlns:xlink="http://www.w3.org/1999/xlink" version="1.1" x="0px" y="0px" width="100px" height="100px" viewBox="0 0 100 100" enable-background="new 0 0 100 100" xml:space="preserve" data-global-elvn="enableViewport, enableClick, full, startInvisible, responsive, 0">
  <desc>Animated with Enliven 'em Animation Engine by DeeThemes</desc>
  <g>
    <path fill="#B0CED8" d="M55 29H30c-8.837 0-17 7-17 18s8.163 18 17 18l7 18c0.655 1.851 1.75 3 3 3h4c1.657 0 3-1.343 3-3l-4-18h12V29z" data-elvn="fadeShortR, in, 0, 400, linear" class="elvn-layer"></path>
    <path fill="#B0CED8" d="M79.9 39v16c4.418 0 8.1-3.582 8.1-8S84.318 39 79.9 39z" data-elvn="fadeShortR, in, 500, 300, linear" class="elvn-layer"></path>
    <path fill="#1983CD" d="M77 15L54 28.25v37.5L77 79c1.657 0 3-1.343 3-3V18C80 16.343 78.657 15 77 15z" data-elvn="fadeShortR, in, 300, 300, linear" class="elvn-layer"></path>
  </g>
</svg>