<svg class="enlivenem" xmlns="http://www.w3.org/2000/svg" xmlns:xlink="http://www.w3.org/1999/xlink" version="1.1" x="0px" y="0px" width="100px" height="100px" viewBox="0 0 100 100" enable-background="new 0 0 100 100" xml:space="preserve" data-global-elvn="enableViewport, enableClick, full, startInvisible, responsive, 0">
  <desc>Animated with Enliven 'em Animation Engine by DeeThemes</desc>
  <g data-elvn="flyRotateC, in, 0, 700, easein" class="elvn-layer">
    <path fill="#917152" d="M37.342 53.268c-3.305 0.805-12.367 4.039-11.851 15.251 0.625 13.579-13.595 13.002-13.595 13.002s27.542 14.07 39.32-14.378L37.342 53.268z"></path>
    <path fill="#00A3C6" d="M43.925 46.211l38.662-30.417c0.548-0.545 1.251-0.836 1.998-0.836 0.748 0 1.451 0.291 1.98 0.82l1.414 1.414c1.092 1.092 1.092 2.868 0 3.96L57.747 59.636 43.925 46.211z"></path>
    <path fill="#43C1DC" d="M86.707 15.637c-1.172-1.172-3.071-1.172-4.243 0l-38.84 30.355 7.088 7.089 36.72-36.72L86.707 15.637z"></path>
    <path fill="#00A3C6" d="M88.121 17.051l-0.689-0.689 -36.72 36.72 7.054 7.054 30.355-38.841C89.293 20.123 89.293 18.223 88.121 17.051z"></path>
    <path fill="#C8C8C8" d="M58.766 59.136L44.624 44.993c-1.172-1.172-3.071-1.172-4.243 0l-4.242 4.242c-1.172 1.172-1.172 3.072 0 4.244L50.28 67.62c1.172 1.172 3.071 1.172 4.243 0l4.242-4.242C59.938 62.206 59.938 60.307 58.766 59.136z"></path>
  </g>
</svg>