<svg class="enlivenem" xmlns="http://www.w3.org/2000/svg" xmlns:xlink="http://www.w3.org/1999/xlink" version="1.1" id="Layer_2" x="0px" y="0px" width="100px" height="100px" viewBox="0 0 100 100" enable-background="new 0 0 100 100" xml:space="preserve" data-global-elvn="enableViewport, enableClick, full, startInvisible, responsive, 0">
  <desc>Animated with Enliven 'em Animation Engine by DeeThemes</desc>
  <g data-elvn="fadeLongB, in, 0, 800, bounce" class="elvn-layer">
    <path fill="#854D37" d="M31.019 42C21.619 42 14 49.611 14 59c0 9.389 7.619 17 17.019 17H38V42H31.019z"/>
    <rect x="36" y="40" fill="#C24C28" width="12" height="38"/>
    <circle fill="#FFFFFF" cx="42" cy="69" r="3"/>
    <path fill="#F1CDB0" d="M86 46c0-3-2-4-4-4 -4.343 0-14 0-14 0s1-6.802 1-10c0-4.264 0-8-4-10s-5 1-5 3c0 1.004 0 7 0 7s-0.485 10-7 10h-5v33h28.229c0 0 4.771-1 4.771-4s-3-4-3-4 5-0.802 5-4 -2-4-2-4 4-2 4-5 -3-4-3-4S86 49 86 46z"/>
  </g>
</svg>
