<svg class="enlivenem" xmlns="http://www.w3.org/2000/svg" xmlns:xlink="http://www.w3.org/1999/xlink" version="1.1" x="0px" y="0px" width="100px" height="100px" viewBox="0 0 100 100" enable-background="new 0 0 100 100" xml:space="preserve" data-global-elvn="enableViewport, enableClick, full, startInvisible, responsive, 0">
  <desc>Animated with Enliven 'em Animation Engine by DeeThemes</desc>
  <g data-elvn="drawLines, 0, 1000, #fafafa, 1, random" class="elvn-layer">
    <path fill="#44B2B6" d="M50 47c-18 0-33 6.908-33 29 0 3.313 2.687 6 6 6h54c3.313 0 6-2.688 6-6C83 53.908 68 47 50 47z"></path>
    <polygon fill="#FFFFFF" points="36 49 45 64 51 55 "></polygon>
    <polygon fill="#FFFFFF" points="50 55 56 64 65 49 "></polygon>
    <circle fill="#F1CDB0" cx="50" cy="37" r="18"></circle>
    <path fill="#AB6125" d="M68.614 33.171c-0.127-0.618-0.283-1.226-0.469-1.821C65.74 23.615 58.526 18 50 18c-0.564 0-1.12 0.036-1.672 0.084 -0.42 0.04-0.837 0.096-1.249 0.163 -0.062 0.01-0.123 0.019-0.184 0.028 -0.976 0.172-1.927 0.417-2.849 0.725h-0.096c-7.209 2.423-12.47 9.043-12.898 16.962 1.836-0.44 3.753-1.189 5.624-2.27 3.179-1.835 5.6-4.254 6.995-6.692H44.3c3.091 6.405 11.406 11 21.2 11 1.18 0 2.329-0.087 3.46-0.215C68.971 37.522 69 37.265 69 37 69 35.688 68.867 34.408 68.614 33.171z"></path>
  </g>
</svg>